<?xml version="1.0" encoding="utf-8"?>
<!-- Generator: Adobe Illustrator 18.0.0, SVG Export Plug-In . SVG Version: 6.00 Build 0)  -->
<!DOCTYPE svg PUBLIC "-//W3C//DTD SVG 1.1//EN" "http://www.w3.org/Graphics/SVG/1.1/DTD/svg11.dtd">
<svg version="1.1" id="Layer_1" xmlns="http://www.w3.org/2000/svg" xmlns:xlink="http://www.w3.org/1999/xlink" x="0px" y="0px"
	 viewBox="0 0 500 500" enable-background="new 0 0 500 500" xml:space="preserve">
<rect fill="#375971" stroke="#000000" stroke-miterlimit="10" width="500" height="500"/>
<path fill-rule="evenodd" clip-rule="evenodd" fill="#FFFFFF" d="M379.841,232.562c0,11.282-9.224,20.506-20.507,20.506
	c-11.348,0-20.505-9.224-20.505-20.506c0-11.347,9.158-20.506,20.505-20.506C370.617,212.056,379.841,221.214,379.841,232.562"/>
<path fill-rule="evenodd" clip-rule="evenodd" fill="#FFFFFF" d="M262.445,160.427c0,11.348-9.158,20.505-20.505,20.505
	c-11.282,0-20.438-9.158-20.438-20.505c0-11.348,9.156-20.506,20.438-20.506C253.288,139.92,262.445,149.079,262.445,160.427"/>
<path fill-rule="evenodd" clip-rule="evenodd" fill="#5D89B4" d="M317.858,211.26c0,14.798-12.01,26.875-26.875,26.875
	c-14.8,0-26.811-12.077-26.811-26.875c0-14.865,12.01-26.875,26.811-26.875C305.847,184.385,317.858,196.395,317.858,211.26"/>
<path fill-rule="evenodd" clip-rule="evenodd" fill="#FFFFFF" d="M349.114,118.685c0,23.825-19.311,43.135-43.134,43.135
	c-23.757,0-43.069-19.31-43.069-43.135c0-23.824,19.313-43.135,43.069-43.135C329.803,75.55,349.114,94.86,349.114,118.685"/>
<path fill-rule="evenodd" clip-rule="evenodd" fill="#FFFFFF" d="M214.798,227.519c0,16.79-13.605,30.394-30.393,30.394
	c-16.79,0-30.394-13.605-30.394-30.394s13.605-30.394,30.394-30.394C201.193,197.124,214.798,210.729,214.798,227.519"/>
<path fill-rule="evenodd" clip-rule="evenodd" fill="#FFFFFF" d="M414.415,173.832c0,16.79-13.606,30.394-30.394,30.394
	c-16.789,0-30.394-13.605-30.394-30.394s13.606-30.394,30.394-30.394C400.81,143.438,414.415,157.042,414.415,173.832"/>
<path fill-rule="evenodd" clip-rule="evenodd" fill="#FFFFFF" d="M258.066,250.613c0,7.367-5.971,13.404-13.404,13.404
	c-7.433,0-13.471-6.037-13.471-13.404c0-7.433,6.037-13.471,13.471-13.471C252.095,237.142,258.066,243.179,258.066,250.613"/>
<path fill-rule="evenodd" clip-rule="evenodd" fill="#FFFFFF" d="M322.239,275.63c0,7.433-5.973,13.404-13.406,13.404
	c-7.431,0-13.404-5.971-13.404-13.404c0-7.434,5.973-13.471,13.404-13.471C316.266,262.159,322.239,268.197,322.239,275.63"/>
<path fill-rule="evenodd" clip-rule="evenodd" fill="#FFFFFF" d="M202.787,122.866c-0.331,7.433-6.636,13.138-14.068,12.74
	c-7.368-0.331-13.073-6.635-12.742-14.068c0.398-7.365,6.701-13.073,14.069-12.74C197.477,109.194,203.185,115.499,202.787,122.866"
	/>
<path fill="#FFFFFF" d="M62.047,407.294h-2.323v-20.856h3.429c1.798,0,3.65,0.056,5.172,1.107c1.549,1.078,2.351,2.904,2.351,4.756
	c0,1.687-0.692,3.403-1.991,4.481c-1.411,1.161-3.209,1.386-4.951,1.386h-1.687V407.294z M62.047,396.007h1.549
	c2.572,0,4.757-0.771,4.757-3.76c0-3.403-2.737-3.648-5.448-3.648h-0.857V396.007z"/>
<path fill="#FFFFFF" d="M80.66,407.294h-2.323v-20.856h3.015c3.955,0,7.633,1.051,7.633,5.753c0,3.208-2.019,5.476-5.227,5.753
	l6.638,9.351h-2.849l-6.305-9.158H80.66V407.294z M80.66,396.09h0.719c2.627,0,5.282-0.494,5.282-3.733
	c0-3.428-2.516-3.758-5.309-3.758H80.66V396.09z"/>
<path fill="#FFFFFF" d="M118.714,396.894c0,6-4.923,10.758-10.869,10.758c-5.946,0-10.869-4.758-10.869-10.758
	c0-5.975,4.923-10.814,10.869-10.814C113.791,386.081,118.714,390.919,118.714,396.894 M99.299,396.865
	c0,4.701,3.817,8.63,8.546,8.63c4.729,0,8.548-3.929,8.548-8.63c0-4.729-3.764-8.63-8.548-8.63S99.299,392.137,99.299,396.865"/>
<path fill="#FFFFFF" d="M126.569,386.438h3.927c3.126,0,5.67,0.415,8.132,2.52c2.378,2.044,3.457,4.836,3.457,7.934
	c0,3.046-1.106,5.726-3.402,7.772c-2.489,2.212-4.978,2.63-8.242,2.63h-3.871V386.438z M130.579,405.134
	c2.544,0,4.674-0.36,6.583-2.157c1.714-1.604,2.599-3.789,2.599-6.112c0-2.379-0.912-4.675-2.71-6.249
	c-1.908-1.689-4.01-2.017-6.472-2.017h-1.687v16.535H130.579z"/>
<path fill="#FFFFFF" d="M152.289,398.855c0,1.552-0.055,3.322,0.913,4.65c0.912,1.269,2.682,1.988,4.203,1.988
	c1.494,0,3.126-0.69,4.094-1.851c1.106-1.328,1.023-3.152,1.023-4.787v-12.417h2.323v13.055c0,2.267-0.166,4.066-1.825,5.782
	c-1.438,1.546-3.512,2.379-5.615,2.379c-1.963,0-3.982-0.75-5.392-2.13c-1.826-1.745-2.047-3.652-2.047-6.031v-13.055h2.324V398.855
	z"/>
<path fill="#FFFFFF" d="M189.57,391.002c-1.659-1.716-3.955-2.767-6.361-2.767c-4.646,0-8.408,4.041-8.408,8.63
	c0,4.591,3.788,8.63,8.463,8.63c2.351,0,4.646-1.107,6.305-2.765v2.875c-1.797,1.3-4.01,2.046-6.222,2.046
	c-5.891,0-10.87-4.785-10.87-10.704c0-5.975,4.896-10.868,10.87-10.868c2.323,0,4.369,0.663,6.222,2.044V391.002z"/>
<polygon fill="#FFFFFF" points="203.73,407.292 201.407,407.292 201.407,388.597 196.374,388.597 196.374,386.438 208.819,386.438 
	208.819,388.597 203.73,388.597 "/>
<path fill="#FFFFFF" d="M249.804,396.894c0,6-4.923,10.758-10.868,10.758c-5.946,0-10.869-4.758-10.869-10.758
	c0-5.975,4.923-10.814,10.869-10.814C244.881,386.081,249.804,390.919,249.804,396.894 M230.389,396.865
	c0,4.701,3.816,8.63,8.546,8.63c4.729,0,8.546-3.929,8.546-8.63c0-4.729-3.759-8.63-8.546-8.63
	C234.15,388.235,230.389,392.137,230.389,396.865"/>
<polygon fill="#FFFFFF" points="259.982,388.597 259.982,394.792 266.923,394.792 266.923,396.948 259.982,396.948 259.982,407.292 
	257.659,407.292 257.659,386.438 267.145,386.438 267.145,388.597 "/>
<path fill="#FFFFFF" d="M288.799,386.438h3.927c3.125,0,5.67,0.415,8.132,2.52c2.379,2.044,3.457,4.836,3.457,7.934
	c0,3.046-1.105,5.726-3.401,7.772c-2.491,2.212-4.98,2.63-8.242,2.63h-3.872V386.438z M292.809,405.134
	c2.545,0,4.674-0.36,6.582-2.157c1.716-1.604,2.601-3.789,2.601-6.112c0-2.379-0.914-4.675-2.711-6.249
	c-1.905-1.689-4.01-2.017-6.472-2.017h-1.687v16.535H292.809z"/>
<polygon fill="#FFFFFF" points="312.252,386.438 323.066,386.438 323.066,388.599 314.575,388.599 314.575,394.794 322.817,394.794 
	322.817,396.948 314.575,396.948 314.575,405.134 323.066,405.134 323.066,407.294 312.252,407.294 "/>
<polygon fill="#FFFFFF" points="331.858,385.553 348.123,402.593 348.123,386.438 350.444,386.438 350.444,408.231 334.183,391.222 
	334.183,407.294 331.858,407.294 "/>
<polygon fill="#FFFFFF" points="362.197,385.25 369.775,402.757 377.381,385.25 381.613,407.292 379.234,407.292 376.552,393.186 
	376.496,393.186 369.775,408.15 363.082,393.186 363.027,393.186 360.343,407.292 357.967,407.292 "/>
<path fill="#FFFFFF" d="M392.094,401.373l-2.516,5.921h-2.545l9.625-21.852l9.376,21.852h-2.572l-2.462-5.921H392.094z
	 M396.603,390.863l-3.567,8.356h7.051L396.603,390.863z"/>
<path fill="#FFFFFF" d="M415.325,407.294h-2.323v-20.856h3.015c3.954,0,7.633,1.051,7.633,5.753c0,3.208-2.019,5.476-5.227,5.753
	l6.638,9.351h-2.848l-6.305-9.158h-0.582V407.294z M415.325,396.09h0.719c2.628,0,5.283-0.494,5.283-3.733
	c0-3.428-2.518-3.758-5.31-3.758h-0.692V396.09z"/>
<polygon fill="#FFFFFF" points="443.894,386.438 447.02,386.438 437.229,396.146 447.351,407.294 444.143,407.294 435.598,397.725 
	435.016,398.303 435.016,407.294 432.694,407.294 432.694,386.438 435.016,386.438 435.016,395.371 "/>
<path fill="#FFFFFF" d="M89.798,307.662h4.85v58.202h-4.85v-7.357h-0.162c-0.702,1.402-1.604,2.628-2.708,3.679
	c-1.106,1.053-2.317,1.93-3.638,2.626c-1.321,0.702-2.68,1.24-4.082,1.62c-1.402,0.374-2.777,0.563-4.123,0.563
	c-3.396,0-6.28-0.563-8.65-1.697c-2.372-1.132-4.325-2.678-5.861-4.65c-1.536-1.965-2.655-4.296-3.355-6.989
	c-0.702-2.697-1.051-5.578-1.051-8.653c0-2.911,0.377-5.709,1.132-8.408c0.755-2.692,1.9-5.053,3.435-7.074
	c1.536-2.017,3.477-3.638,5.821-4.847c2.344-1.215,5.106-1.822,8.285-1.822c2.963,0,5.807,0.663,8.529,1.98
	c2.721,1.321,4.864,3.274,6.427,5.865V307.662z M89.798,344.764c0-2.368-0.323-4.62-0.97-6.75c-0.647-2.127-1.577-3.987-2.789-5.578
	c-1.212-1.589-2.696-2.857-4.446-3.8c-1.753-0.939-3.731-1.415-5.942-1.415c-2.534,0-4.717,0.499-6.548,1.496
	c-1.831,1.001-3.342,2.358-4.527,4.082c-1.187,1.729-2.048,3.733-2.588,6.023c-0.54,2.291-0.755,4.758-0.646,7.4
	c0,2.638,0.364,4.969,1.092,6.993c0.727,2.017,1.738,3.731,3.031,5.129c1.293,1.402,2.802,2.466,4.527,3.195
	c1.723,0.729,3.611,1.091,5.659,1.091c2.264,0,4.284-0.455,6.063-1.375c1.779-0.916,3.259-2.169,4.446-3.758
	c1.185-1.589,2.087-3.474,2.708-5.659C89.487,349.655,89.798,347.299,89.798,344.764"/>
<path fill="#FFFFFF" d="M108.634,346.059c0,2.262,0.295,4.409,0.889,6.426c0.593,2.021,1.468,3.773,2.627,5.258
	c1.159,1.479,2.627,2.668,4.405,3.555c1.778,0.889,3.828,1.334,6.144,1.334c3.181,0,5.901-0.835,8.165-2.506
	c2.264-1.668,3.772-4.043,4.527-7.116h5.416c-0.593,1.994-1.374,3.844-2.344,5.539c-0.97,1.697-2.184,3.183-3.638,4.446
	c-1.455,1.267-3.181,2.25-5.174,2.95c-1.993,0.7-4.313,1.051-6.953,1.051c-3.343,0-6.225-0.563-8.65-1.697
	c-2.425-1.132-4.419-2.678-5.982-4.65c-1.564-1.965-2.722-4.284-3.477-6.951c-0.755-2.668-1.131-5.535-1.131-8.609
	c0-3.073,0.445-5.952,1.334-8.651c0.889-2.695,2.155-5.053,3.8-7.072c1.644-2.02,3.65-3.611,6.023-4.768
	c2.372-1.159,5.065-1.741,8.084-1.741c5.767,0,10.292,1.98,13.581,5.942c3.287,3.962,4.904,9.716,4.851,17.26H108.634z
	 M135.958,342.016c0-2.046-0.283-3.974-0.849-5.78c-0.566-1.803-1.402-3.368-2.507-4.689c-1.104-1.319-2.493-2.37-4.163-3.149
	c-1.669-0.783-3.584-1.176-5.739-1.176c-2.157,0-4.055,0.405-5.7,1.213c-1.644,0.808-3.043,1.886-4.204,3.235
	c-1.159,1.348-2.089,2.909-2.788,4.687c-0.7,1.78-1.16,3.667-1.374,5.659H135.958z"/>
<path fill="#FFFFFF" d="M154.47,365.864h-4.851v-41.875h4.851v7.841h0.162c1.346-3.339,3.084-5.672,5.214-6.993
	c2.127-1.317,4.945-1.98,8.448-1.98v5.254c-2.749-0.052-5.012,0.38-6.79,1.294c-1.779,0.916-3.193,2.157-4.244,3.719
	c-1.051,1.566-1.779,3.409-2.182,5.537c-0.405,2.13-0.607,4.356-0.607,6.673V365.864z"/>
<path fill="#FFFFFF" d="M180.742,365.864h-4.851v-41.875h4.851v6.305h0.162c1.24-2.422,3.019-4.271,5.335-5.537
	c2.317-1.267,4.85-1.901,7.599-1.901c1.94,0,3.583,0.218,4.932,0.646c1.346,0.432,2.493,1.012,3.435,1.739s1.723,1.577,2.345,2.549
	c0.619,0.97,1.145,2.019,1.577,3.15c1.399-2.749,3.273-4.783,5.618-6.104c2.345-1.317,5.026-1.98,8.044-1.98
	c2.856,0,5.133,0.472,6.831,1.415c1.697,0.945,3.004,2.186,3.92,3.719c0.915,1.535,1.524,3.301,1.82,5.298
	c0.295,1.992,0.445,4.039,0.445,6.141v26.435h-4.851v-28.94c0-3.017-0.634-5.389-1.9-7.114c-1.265-1.724-3.625-2.589-7.073-2.589
	c-1.779,0-3.491,0.395-5.134,1.176c-1.644,0.779-3.087,1.978-4.325,3.594c-0.54,0.702-0.985,1.523-1.334,2.466
	c-0.351,0.945-0.634,1.93-0.849,2.95c-0.217,1.024-0.364,2.048-0.445,3.073c-0.081,1.026-0.121,1.967-0.121,2.829v22.554h-4.85
	v-28.94c0-3.017-0.635-5.389-1.9-7.114c-1.266-1.724-3.625-2.589-7.074-2.589c-1.778,0-3.488,0.395-5.133,1.176
	c-1.645,0.779-3.085,1.978-4.325,3.594c-0.538,0.702-0.983,1.523-1.334,2.466c-0.351,0.945-0.634,1.93-0.849,2.95
	c-0.215,1.024-0.365,2.048-0.445,3.073c-0.081,1.026-0.122,1.967-0.122,2.829V365.864z"/>
<path fill="#FFFFFF" d="M261.905,341.451c0.916-0.106,2.007-0.27,3.274-0.486c1.265-0.214,2.304-0.509,3.112-0.889
	c0.808-0.376,1.307-1.01,1.496-1.899c0.187-0.889,0.283-1.708,0.283-2.466c0-2.479-0.796-4.512-2.385-6.104
	c-1.589-1.589-4.271-2.385-8.044-2.385c-1.67,0-3.206,0.15-4.608,0.445c-1.4,0.299-2.626,0.81-3.677,1.54
	c-1.051,0.725-1.913,1.695-2.587,2.908c-0.675,1.211-1.12,2.734-1.335,4.566h-4.931c0.162-2.478,0.727-4.593,1.697-6.347
	c0.97-1.747,2.223-3.176,3.759-4.284c1.536-1.101,3.317-1.909,5.336-2.425c2.021-0.513,4.164-0.769,6.426-0.769
	c2.103,0,4.082,0.233,5.942,0.688c1.859,0.459,3.476,1.186,4.851,2.181c1.375,0.999,2.451,2.333,3.233,4.005
	c0.781,1.67,1.174,3.719,1.174,6.141v22.797c0,1.886,0.334,3.085,1.01,3.6c0.673,0.513,2.034,0.388,4.082-0.364v3.796
	c-0.378,0.112-0.929,0.272-1.654,0.486c-0.731,0.214-1.446,0.326-2.146,0.326c-0.754,0-1.481-0.081-2.181-0.245
	c-0.808-0.106-1.456-0.364-1.94-0.769c-0.486-0.401-0.877-0.889-1.172-1.454c-0.297-0.567-0.501-1.186-0.607-1.859
	c-0.11-0.673-0.162-1.388-0.162-2.14c-2.048,2.26-4.394,3.989-7.033,5.171c-2.643,1.184-5.497,1.778-8.57,1.778
	c-1.832,0-3.598-0.243-5.296-0.727c-1.697-0.486-3.193-1.24-4.486-2.264c-1.291-1.022-2.317-2.273-3.072-3.758
	c-0.755-1.481-1.132-3.247-1.132-5.296c0-7.113,4.878-11.316,14.632-12.611L261.905,341.451z M270.07,343.875
	c-2.048,0.862-4.122,1.429-6.224,1.697c-2.103,0.27-4.205,0.486-6.305,0.65c-3.719,0.268-6.617,1.103-8.69,2.503
	c-2.076,1.402-3.113,3.53-3.113,6.386c0,1.296,0.256,2.412,0.768,3.355c0.513,0.945,1.185,1.724,2.023,2.344
	c0.833,0.621,1.803,1.078,2.909,1.375c1.103,0.297,2.223,0.445,3.355,0.445c1.94,0,3.825-0.243,5.659-0.725
	c1.83-0.488,3.461-1.228,4.891-2.225c1.427-0.997,2.572-2.265,3.434-3.798c0.862-1.539,1.294-3.357,1.294-5.46V343.875z"/>
<path fill="#5D89B4" d="M334.501,316.167c3.841,5.132,5.763,11.699,5.763,19.699c0,8.657-2.198,15.854-6.592,21.59
	c-5.159,6.737-12.513,10.105-22.066,10.105c-8.921,0-15.935-2.946-21.039-8.842c-4.554-5.684-6.829-12.868-6.829-21.552
	c0-7.838,1.947-14.551,5.842-20.131c4.999-7.157,12.395-10.737,22.184-10.737C322,306.299,329.579,309.59,334.501,316.167
	 M327.574,353.129c3.091-4.965,4.637-10.674,4.637-17.127c0-6.821-1.783-12.311-5.348-16.473c-3.567-4.161-8.443-6.243-14.626-6.243
	c-6,0-10.895,2.061-14.684,6.185c-3.79,4.12-5.684,10.201-5.684,18.23c0,6.428,1.624,11.846,4.876,16.259
	c3.249,4.411,8.518,6.615,15.808,6.615C319.474,360.575,324.481,358.094,327.574,353.129"/>
<polygon fill="#5D89B4" points="353.288,365.864 343.848,365.864 364.372,336.118 345.134,307.878 354.929,307.878 369.557,330.062 
	384.071,307.878 393.393,307.878 374.163,336.118 394.334,365.864 384.617,365.864 369.169,342.022 "/>
<polygon fill="#5D89B4" points="396.64,307.878 405.8,307.878 422.47,335.748 439.14,307.878 448.379,307.878 426.417,342.496 
	426.417,365.864 418.562,365.864 418.562,342.496 "/>
<rect x="-66.599" y="-201.426" fill="none" width="633.199" height="892.508"/>
<rect x="55.017" y="305.314" fill="none" width="393.568" height="63.822"/>
</svg>
