<?xml version="1.0" encoding="utf-8"?>
<!-- Generator: Adobe Illustrator 18.0.0, SVG Export Plug-In . SVG Version: 6.00 Build 0)  -->
<!DOCTYPE svg PUBLIC "-//W3C//DTD SVG 1.1//EN" "http://www.w3.org/Graphics/SVG/1.1/DTD/svg11.dtd">
<svg version="1.1" id="Layer_1" xmlns="http://www.w3.org/2000/svg" xmlns:xlink="http://www.w3.org/1999/xlink" x="0px" y="0px"
	 viewBox="0 0 200 150" enable-background="new 0 0 200 150" xml:space="preserve">
<g>
	<path fill="#FFFFFF" stroke="#404041" stroke-width="4" stroke-miterlimit="10" d="M195.639,68.447c0,0-7.807,3.546-25.037-0.068
		S149.84,57.5,149.84,57.5l2.047-10.831c0,0-10.994-11.703-51.64-11.888l-0.404-0.001c-40.647-0.036-51.688,11.606-51.688,11.606
		l1.988,10.842c0,0-3.571,7.245-20.821,10.765c-17.234,3.521-25.021-0.068-25.021-0.068S-7.31,40.099,29.044,27.869
		c34.06-11.431,66.847-11.759,70.85-11.748c0,0,0.145,0,0.404,0.001c4.003,0.011,36.804,0.518,70.817,12.135
		C207.418,40.686,195.639,68.447,195.639,68.447z"/>
	<polygon fill="#FFFFFF" stroke="#404041" stroke-width="4" stroke-linejoin="round" stroke-miterlimit="10" points="
		159.375,114.633 159.375,133.879 40.311,133.879 40.311,114.633 56.252,50.42 143.565,50.42 	"/>
	<g>
		<path fill="#FFFFFF" d="M127.493,30.936c-1.1,0-2,0.9-2,2v21.776c0,1.1,0.9,2,2,2h10.28c1.1,0,2-0.9,2-2V32.936c0-1.1-0.9-2-2-2
			H127.493z"/>
	</g>
	<g>
		<path fill="#FFFFFF" d="M62.603,30.936c-1.1,0-2,0.9-2,2v21.776c0,1.1,0.9,2,2,2h10.28c1.1,0,2-0.9,2-2V32.936c0-1.1-0.9-2-2-2
			H62.603z"/>
	</g>
	<path fill="#404041" d="M99.843,55.031c-20.53,0-37.167,12.426-37.167,27.737s16.637,27.723,37.167,27.723
		S137.01,98.08,137.01,82.768S120.373,55.031,99.843,55.031z M99.843,92.143c-12.895,0-23.36-7.317-23.36-16.36
		s10.465-16.374,23.36-16.374s23.36,7.331,23.36,16.374S112.738,92.143,99.843,92.143z"/>
	<g>
		<path fill="#404041" d="M128.571,34.275c-0.55,0-1,0.45-1,1v17.38c0,0.55,0.45,1,1,1h8.125c0.55,0,1-0.45,1-1v-17.38
			c0-0.55-0.45-1-1-1H128.571z"/>
	</g>
	<g>
		<path fill="#404041" d="M63.681,34.275c-0.55,0-1,0.45-1,1v17.38c0,0.55,0.45,1,1,1h8.125c0.55,0,1-0.45,1-1v-17.38
			c0-0.55-0.45-1-1-1H63.681z"/>
	</g>
</g>
</svg>
