<?xml version="1.0" encoding="utf-8"?>
<!-- Generator: Adobe Illustrator 18.0.0, SVG Export Plug-In . SVG Version: 6.00 Build 0)  -->
<!DOCTYPE svg PUBLIC "-//W3C//DTD SVG 1.1//EN" "http://www.w3.org/Graphics/SVG/1.1/DTD/svg11.dtd">
<svg version="1.1" id="Layer_1" xmlns="http://www.w3.org/2000/svg" xmlns:xlink="http://www.w3.org/1999/xlink" x="0px" y="0px"
	 viewBox="0 0 270 270" enable-background="new 0 0 270 270" xml:space="preserve">
<g>
	<path fill="#FFFFFF" d="M135,268C61.664,268,2,208.337,2,135C2,61.664,61.664,2,135,2c73.337,0,133,59.664,133,133
		C268,208.337,208.337,268,135,268z"/>
	<path fill="#404041" d="M135,4c34.991,0,67.888,13.626,92.631,38.369S266,100.009,266,135s-13.626,67.888-38.369,92.631
		S169.991,266,135,266s-67.888-13.626-92.631-38.369S4,169.991,4,135s13.626-67.888,38.369-92.631S100.009,4,135,4 M135,0
		C60.442,0,0,60.442,0,135s60.442,135,135,135s135-60.442,135-135S209.558,0,135,0L135,0z"/>
</g>
<g>
	<rect x="82.576" y="142.424" fill="#404041" width="3.96" height="13.198"/>
	<rect x="82.576" y="114.376" fill="#404041" width="3.96" height="13.198"/>
	<path fill="#404041" d="M187.424,82.1v105.808c0,6.544-5.327,11.881-11.881,11.881H94.457c-6.544,0-11.881-5.337-11.881-11.881
		v-17.435h3.96v17.435c0,4.366,3.554,7.92,7.92,7.92h81.086c4.376,0,7.92-3.554,7.92-7.92V82.1c0-4.366-3.544-7.92-7.92-7.92H94.457
		c-4.366,0-7.92,3.554-7.92,7.92v17.425h-3.96V82.1c0-6.554,5.336-11.881,11.881-11.881h81.086
		C182.097,70.219,187.424,75.546,187.424,82.1z"/>
</g>
<path fill="#404041" d="M94.043,139.083H75.078c-1.587,0-2.886-1.299-2.886-2.886v-2.396c0-1.587,1.299-2.886,2.886-2.886h18.965
	c1.587,0,2.886,1.299,2.886,2.886v2.396C96.929,137.785,95.63,139.083,94.043,139.083z"/>
<path fill="#404041" d="M94.043,111.032H75.078c-1.587,0-2.886-1.299-2.886-2.886v-2.396c0-1.587,1.299-2.886,2.886-2.886h18.965
	c1.587,0,2.886,1.299,2.886,2.886v2.396C96.929,109.733,95.63,111.032,94.043,111.032z"/>
<path fill="#404041" d="M94.043,167.135H75.078c-1.587,0-2.886-1.299-2.886-2.886v-2.396c0-1.587,1.299-2.886,2.886-2.886h18.965
	c1.587,0,2.886,1.299,2.886,2.886v2.396C96.929,165.837,95.63,167.135,94.043,167.135z"/>
<path fill="none" stroke="#404041" stroke-width="2" stroke-miterlimit="10" d="M175.24,132.197c0,0-3.158,1.434-10.127-0.028
	s-8.398-4.4-8.398-4.4l0.828-4.381c0,0-4.447-4.733-20.887-4.809l-0.163,0c-16.441-0.015-20.906,4.694-20.906,4.694l0.804,4.385
	c0,0-1.444,2.93-8.422,4.354c-6.971,1.424-10.12-0.028-10.12-0.028s-4.696-11.255,10.008-16.201
	c13.776-4.623,27.037-4.756,28.657-4.752c0,0,0.059,0,0.163,0c1.619,0.004,14.886,0.21,28.643,4.908
	C180.004,120.968,175.24,132.197,175.24,132.197z"/>
<g>
	<path fill="#F1F1F2" d="M148.868,117.024c-1.1,0-2,0.9-2,2v6.425c0,1.1,0.9,2,2,2h1.776c1.1,0,2-0.9,2-2v-6.425c0-1.1-0.9-2-2-2
		H148.868z"/>
</g>
<g>
	<path fill="#F1F1F2" d="M122.622,117.024c-1.1,0-2,0.9-2,2v6.425c0,1.1,0.9,2,2,2h1.776c1.1,0,2-0.9,2-2v-6.425c0-1.1-0.9-2-2-2
		H122.622z"/>
</g>
<path fill="#404041" d="M136.494,126.77c-8.304,0-15.033,5.026-15.033,11.219c0,6.193,6.729,11.213,15.033,11.213
	c8.304,0,15.033-5.02,15.033-11.213C151.526,131.796,144.797,126.77,136.494,126.77z M136.494,141.781
	c-5.216,0-9.449-2.96-9.449-6.617s4.233-6.623,9.449-6.623c5.216,0,9.449,2.965,9.449,6.623S141.709,141.781,136.494,141.781z"/>
<g>
	<path fill="#404041" d="M148.709,118.375c-0.55,0-1,0.45-1,1v5.839c0,0.55,0.45,1,1,1h2.095c0.55,0,1-0.45,1-1v-5.839
		c0-0.55-0.45-1-1-1H148.709z"/>
</g>
<polygon fill="none" stroke="#404041" stroke-width="2" stroke-linejoin="round" stroke-miterlimit="10" points="160.573,150.878 
	160.573,158.662 112.415,158.662 112.415,150.878 118.862,124.905 154.178,124.905 "/>
<g>
	<path fill="#404041" d="M122.463,118.375c-0.55,0-1,0.45-1,1v5.839c0,0.55,0.45,1,1,1h2.095c0.55,0,1-0.45,1-1v-5.839
		c0-0.55-0.45-1-1-1H122.463z"/>
</g>
</svg>
