<?xml version="1.0" encoding="utf-8"?>
<!-- Generator: Adobe Illustrator 18.0.0, SVG Export Plug-In . SVG Version: 6.00 Build 0)  -->
<!DOCTYPE svg PUBLIC "-//W3C//DTD SVG 1.1//EN" "http://www.w3.org/Graphics/SVG/1.1/DTD/svg11.dtd">
<svg version="1.1" xmlns="http://www.w3.org/2000/svg" xmlns:xlink="http://www.w3.org/1999/xlink" x="0px" y="0px"
	 viewBox="0 0 50 50" enable-background="new 0 0 50 50" xml:space="preserve">
<g id="Layer_1" display="none">
	<path display="inline" fill="#3B5998" d="M22.983,19.115v16.823h4.099V19.115c0,0-0.156-1.425,1.444-1.425c1.601,0,2.537,0,2.537,0
		v-3.435c0,0-2.206-0.293-4.157,0C24.954,14.547,22.983,16.206,22.983,19.115z"/>
	<polygon display="inline" fill="#3B5998" points="20.328,25.966 20.328,22.14 31.161,22.14 30.946,25.966 	"/>
</g>
<g id="Layer_2">
	<path fill="#121112" d="M40.868,32.954c2.726-3.424,4.2-7.77,4.2-12.494c0-11.107-9.002-20.118-20.118-20.118
		c-11.107,0-20.118,9.011-20.118,20.118c0,4.724,1.62,9.07,4.346,12.494l15.824,16.955L40.868,32.954z"/>
	<path fill="#121112" d="M24.96,45"/>
	<path fill="#121112" d="M8.781,32.635"/>
	<g>
		
			<linearGradient id="SVGID_1_" gradientUnits="userSpaceOnUse" x1="21.7673" y1="-58.6838" x2="31.6652" y2="-42.9688" gradientTransform="matrix(0.9939 -0.1099 0.1099 0.9939 1.2753 70.8608)">
			<stop  offset="0" style="stop-color:#FEF7FA"/>
			<stop  offset="1" style="stop-color:#C6C7C9"/>
		</linearGradient>
		<path fill="url(#SVGID_1_)" d="M25.794,8.695c-1.312,2.391-4.665,9.899-0.578,18.212l-6.991-0.001c0,0-0.321-0.986-0.641-2.59
			c-0.742-3.7-1.489-10.687,1.684-16.412l6.992,0.001C26.261,7.906,26.075,8.184,25.794,8.695z"/>
		<path opacity="0.12" fill="#231F20" d="M26.261,7.906c0,0-0.186,0.278-0.467,0.789L25.77,8.709l-8.185,15.607
			c-0.742-3.7-1.489-10.687,1.684-16.412L26.261,7.906z"/>
		
			<linearGradient id="SVGID_2_" gradientUnits="userSpaceOnUse" x1="32.2959" y1="-57.5196" x2="42.1938" y2="-41.8046" gradientTransform="matrix(0.9939 -0.1099 0.1099 0.9939 1.2753 70.8608)">
			<stop  offset="0" style="stop-color:#FEF7FA"/>
			<stop  offset="1" style="stop-color:#C6C7C9"/>
		</linearGradient>
		<path fill="url(#SVGID_2_)" d="M36.387,8.695c-1.312,2.391-4.665,9.899-0.578,18.212l-6.991-0.001c0,0-0.321-0.986-0.641-2.59
			c-0.742-3.7-1.489-10.687,1.684-16.412l6.992,0.001C36.854,7.906,36.668,8.184,36.387,8.695z"/>
		<path opacity="0.12" fill="#231F20" d="M36.854,7.906c0,0-0.186,0.278-0.467,0.789l-0.024,0.014l-8.185,15.607
			c-0.742-3.7-1.489-10.687,1.684-16.412L36.854,7.906z"/>
		
			<linearGradient id="SVGID_3_" gradientUnits="userSpaceOnUse" x1="-2070.1482" y1="-38.1022" x2="-2047.1047" y2="-50.3547" gradientTransform="matrix(0.9939 -0.1099 0.1099 0.9939 2067.9622 -164.8921)">
			<stop  offset="0.3333" style="stop-color:#FEFFFF"/>
			<stop  offset="0.5331" style="stop-color:#FBFCFC"/>
			<stop  offset="0.6822" style="stop-color:#F1F3F3"/>
			<stop  offset="0.8147" style="stop-color:#E1E3E4"/>
			<stop  offset="0.937" style="stop-color:#CBCDCE"/>
			<stop  offset="1" style="stop-color:#BCBEC0"/>
		</linearGradient>
		<polygon fill="url(#SVGID_3_)" points="26.261,7.906 19.269,7.906 7.632,26.907 14.624,26.907 		"/>
		
			<linearGradient id="SVGID_4_" gradientUnits="userSpaceOnUse" x1="-2059.6187" y1="-36.9383" x2="-2036.5759" y2="-49.1902" gradientTransform="matrix(0.9939 -0.1099 0.1099 0.9939 2067.9622 -164.8921)">
			<stop  offset="0.3333" style="stop-color:#FEFFFF"/>
			<stop  offset="0.5331" style="stop-color:#FBFCFC"/>
			<stop  offset="0.6822" style="stop-color:#F1F3F3"/>
			<stop  offset="0.8147" style="stop-color:#E1E3E4"/>
			<stop  offset="0.937" style="stop-color:#CBCDCE"/>
			<stop  offset="1" style="stop-color:#BCBEC0"/>
		</linearGradient>
		<polygon fill="url(#SVGID_4_)" points="36.854,7.906 29.862,7.905 18.226,26.907 25.217,26.908 		"/>
		
			<linearGradient id="SVGID_5_" gradientUnits="userSpaceOnUse" x1="-2047.4259" y1="-32.6725" x2="-2038.17" y2="-37.5939" gradientTransform="matrix(0.9939 -0.1099 0.1099 0.9939 2067.9622 -164.8921)">
			<stop  offset="0.3333" style="stop-color:#FEFFFF"/>
			<stop  offset="0.5331" style="stop-color:#FBFCFC"/>
			<stop  offset="0.6822" style="stop-color:#F1F3F3"/>
			<stop  offset="0.8147" style="stop-color:#E1E3E4"/>
			<stop  offset="0.937" style="stop-color:#CBCDCE"/>
			<stop  offset="1" style="stop-color:#BCBEC0"/>
		</linearGradient>
		<polygon fill="url(#SVGID_5_)" points="38.521,22.504 31.535,22.5 28.835,26.908 35.832,26.907 		"/>
	</g>
	<path fill="#121112" d="M40.99,32.545L40.99,32.545"/>
</g>
</svg>
