<?xml version="1.0" encoding="utf-8"?>
<!-- Generator: Adobe Illustrator 18.0.0, SVG Export Plug-In . SVG Version: 6.00 Build 0)  -->
<!DOCTYPE svg PUBLIC "-//W3C//DTD SVG 1.1//EN" "http://www.w3.org/Graphics/SVG/1.1/DTD/svg11.dtd">
<svg version="1.1" id="Layer_1" xmlns="http://www.w3.org/2000/svg" xmlns:xlink="http://www.w3.org/1999/xlink" x="0px" y="0px"
	 viewBox="0 0 270 270" enable-background="new 0 0 270 270" xml:space="preserve">
<g>
	<path fill="#FFFFFF" d="M135.113,268c-73.336,0-133-59.663-133-133c0-73.336,59.664-133,133-133s133,59.664,133,133
		C268.113,208.337,208.449,268,135.113,268z"/>
	<path fill="#404041" d="M135.113,4c34.991,0,67.888,13.626,92.631,38.369s38.369,57.64,38.369,92.631s-13.626,67.888-38.369,92.631
		S170.104,266,135.113,266s-67.888-13.626-92.631-38.369S4.113,169.991,4.113,135s13.626-67.888,38.369-92.631S100.122,4,135.113,4
		 M135.113,0c-74.558,0-135,60.442-135,135s60.442,135,135,135s135-60.442,135-135S209.671,0,135.113,0L135.113,0z"/>
</g>
<g>
	<g>
		<g>
			<polygon fill="#FFFFFF" points="93.876,66.042 93.876,181.282 111.019,211.987 128.116,181.2 128.153,66.064 118.722,56.546 
				103.316,56.546 			"/>
			<path fill="#404041" d="M111.022,215.021L92.43,181.719V65.359l10.317-10.38h16.544l10.308,10.403l-0.037,116.252
				L111.022,215.021z M95.323,180.845l15.693,28.108l15.654-28.189l0.036-114.019l-8.553-8.633h-14.269l-8.561,8.613V180.845z"/>
		</g>
		<g>
			<path fill="#404041" d="M103.316,173.289c-0.399,0-0.723-0.35-0.723-0.783l0-109.986c0-0.433,0.324-0.783,0.723-0.783
				s0.723,0.35,0.723,0.783l0,109.986C104.039,172.939,103.715,173.289,103.316,173.289z"/>
		</g>
		<g>
			<path fill="#404041" d="M118.656,173.072L118.656,173.072c-0.4,0-0.724-0.351-0.723-0.784l0.066-109.384
				c0-0.432,0.324-0.783,0.723-0.783h0c0.399,0,0.723,0.351,0.723,0.784l-0.066,109.384
				C119.379,172.722,119.055,173.072,118.656,173.072z"/>
		</g>
		<g>
			<path fill="#404041" d="M116.723,201.121c-5.693-5.471-11.469,0.391-11.469,0.391l5.764,10.475L116.723,201.121z"/>
		</g>
		<g>
			<path fill="#404041" d="M93.877,181.674c-0.105,0-0.209-0.049-0.281-0.145c-0.126-0.168-0.103-0.415,0.052-0.551l9.538-8.408
				h15.596l9.559,8.324c0.155,0.135,0.18,0.382,0.055,0.551c-0.124,0.169-0.351,0.196-0.509,0.06l-9.361-8.151h-15.084l-9.339,8.232
				C94.038,181.645,93.957,181.674,93.877,181.674z"/>
		</g>
	</g>
	<g>
		<path fill="none" stroke="#404041" stroke-width="3.2" stroke-miterlimit="10" d="M177.796,59.838v150.323
			c0,1.528-1.239,2.768-2.768,2.768h-29.465c-1.528,0-2.768-1.239-2.768-2.768V59.838c0-1.528,1.239-2.768,2.768-2.768h29.465
			C176.556,57.07,177.796,58.309,177.796,59.838z"/>
		<line fill="none" stroke="#404041" stroke-width="2.6" stroke-miterlimit="10" x1="156.1" y1="204.124" x2="142.6" y2="204.124"/>
		<line fill="none" stroke="#404041" stroke-width="2.6" stroke-miterlimit="10" x1="156.1" y1="176.44" x2="142.6" y2="176.44"/>
		
			<line fill="none" stroke="#404041" stroke-width="1.7" stroke-miterlimit="10" x1="151.745" y1="194.896" x2="142.6" y2="194.896"/>
		
			<line fill="none" stroke="#404041" stroke-width="1.7" stroke-miterlimit="10" x1="151.745" y1="185.669" x2="142.6" y2="185.669"/>
		<line fill="none" stroke="#404041" stroke-width="2.6" stroke-miterlimit="10" x1="156.1" y1="148.757" x2="142.6" y2="148.757"/>
		
			<line fill="none" stroke="#404041" stroke-width="1.7" stroke-miterlimit="10" x1="151.745" y1="167.212" x2="142.6" y2="167.212"/>
		
			<line fill="none" stroke="#404041" stroke-width="1.7" stroke-miterlimit="10" x1="151.745" y1="157.984" x2="142.6" y2="157.984"/>
		<line fill="none" stroke="#404041" stroke-width="2.6" stroke-miterlimit="10" x1="156.1" y1="121.073" x2="142.6" y2="121.073"/>
		
			<line fill="none" stroke="#404041" stroke-width="1.7" stroke-miterlimit="10" x1="151.745" y1="139.529" x2="142.6" y2="139.529"/>
		
			<line fill="none" stroke="#404041" stroke-width="1.7" stroke-miterlimit="10" x1="151.745" y1="130.301" x2="142.6" y2="130.301"/>
		<line fill="none" stroke="#404041" stroke-width="2.6" stroke-miterlimit="10" x1="156.1" y1="93.389" x2="142.6" y2="93.389"/>
		
			<line fill="none" stroke="#404041" stroke-width="1.7" stroke-miterlimit="10" x1="151.745" y1="111.845" x2="142.6" y2="111.845"/>
		
			<line fill="none" stroke="#404041" stroke-width="1.7" stroke-miterlimit="10" x1="151.745" y1="102.617" x2="142.6" y2="102.617"/>
		<line fill="none" stroke="#404041" stroke-width="2.6" stroke-miterlimit="10" x1="156.1" y1="65.705" x2="142.6" y2="65.705"/>
		<line fill="none" stroke="#404041" stroke-width="1.7" stroke-miterlimit="10" x1="151.745" y1="84.161" x2="142.6" y2="84.161"/>
		<line fill="none" stroke="#404041" stroke-width="1.7" stroke-miterlimit="10" x1="151.745" y1="74.933" x2="142.6" y2="74.933"/>
	</g>
</g>
</svg>
