<?xml version="1.0" encoding="utf-8"?>
<!-- Generator: Adobe Illustrator 18.0.0, SVG Export Plug-In . SVG Version: 6.00 Build 0)  -->
<!DOCTYPE svg PUBLIC "-//W3C//DTD SVG 1.1//EN" "http://www.w3.org/Graphics/SVG/1.1/DTD/svg11.dtd">
<svg version="1.1" id="Layer_1" xmlns="http://www.w3.org/2000/svg" xmlns:xlink="http://www.w3.org/1999/xlink" x="0px" y="0px"
	 viewBox="0 0 270 270" enable-background="new 0 0 270 270" xml:space="preserve">
<g>
	<path fill="#FFFFFF" d="M135,268C61.664,268,2,208.337,2,135C2,61.664,61.664,2,135,2c73.337,0,133,59.664,133,133
		C268,208.337,208.337,268,135,268z"/>
	<path fill="#404041" d="M135,4c34.991,0,67.888,13.626,92.631,38.369S266,100.009,266,135s-13.626,67.888-38.369,92.631
		S169.991,266,135,266s-67.888-13.626-92.631-38.369S4,169.991,4,135s13.626-67.888,38.369-92.631S100.009,4,135,4 M135,0
		C60.442,0,0,60.442,0,135s60.442,135,135,135s135-60.442,135-135S209.558,0,135,0L135,0z"/>
</g>
<path fill="none" stroke="#404041" stroke-width="4" stroke-miterlimit="10" d="M194.108,178.826H75.892
	c-2.532,0-4.604-2.072-4.604-4.604V99.661c0-2.532,2.072-4.604,4.604-4.604h118.216c2.532,0,4.604,2.072,4.604,4.604v74.561
	C198.712,176.755,196.64,178.826,194.108,178.826z"/>
<path fill="none" stroke="#404041" stroke-width="4" stroke-miterlimit="10" d="M90.755,95.057V82.064
	c0-1.939,1.586-3.525,3.525-3.525h13.007c1.939,0,3.525,1.586,3.525,3.525v12.993"/>
<path fill="#404041" d="M109.103,144.54H92.465c-1.513,0-2.75-1.238-2.75-2.75v-29.092c0-1.513,1.238-2.75,2.75-2.75h16.639
	c1.513,0,2.75,1.238,2.75,2.75v29.092C111.854,143.303,110.616,144.54,109.103,144.54z"/>
<circle fill="#404041" cx="157.417" cy="137.292" r="24.63"/>
<path fill="none" stroke="#F1F1F2" stroke-width="2" stroke-linecap="round" stroke-miterlimit="10" d="M161.082,120.919
	c0,0,12.014,0,14.86,15.808"/>
<circle fill="none" stroke="#404041" stroke-width="2" stroke-miterlimit="10" cx="157.417" cy="137.292" r="32.871"/>
</svg>
