<?xml version="1.0" encoding="utf-8"?>
<!-- Generator: Adobe Illustrator 18.0.0, SVG Export Plug-In . SVG Version: 6.00 Build 0)  -->
<!DOCTYPE svg PUBLIC "-//W3C//DTD SVG 1.1//EN" "http://www.w3.org/Graphics/SVG/1.1/DTD/svg11.dtd">
<svg version="1.1" id="Layer_1" xmlns="http://www.w3.org/2000/svg" xmlns:xlink="http://www.w3.org/1999/xlink" x="0px" y="0px"
	 viewBox="0 0 120 200" enable-background="new 0 0 120 200" xml:space="preserve">
<path fill="#FFFFFF" stroke="#404041" stroke-width="4" stroke-miterlimit="10" d="M113.78,12.632v155.097
	c0,2.532-2.072,4.604-4.604,4.604H11.012c-2.532,0-4.604-2.072-4.604-4.604V12.632c0-2.532,2.072-4.604,4.604-4.604h98.164
	C111.708,8.028,113.78,10.1,113.78,12.632z"/>
<circle fill="#404041" cx="49.485" cy="52.925" r="30.219"/>
<path fill="none" stroke="#F1F1F2" stroke-width="2" stroke-linecap="round" stroke-miterlimit="10" d="M29.397,48.428
	c0,0,0.858-16.326,19.395-17.539"/>
<circle fill="none" stroke="#404041" stroke-width="2" stroke-miterlimit="10" cx="49.485" cy="52.925" r="37.256"/>
<circle fill="none" stroke="#404041" stroke-width="2" stroke-miterlimit="10" cx="84.588" cy="142.734" r="14.857"/>
<path fill="#404041" d="M49.607,159.639H21.452c-2.75,0-5-2.25-5-5v-34.57c0-2.75,2.25-5,5-5h28.155c2.75,0,5,2.25,5,5v34.57
	C54.607,157.389,52.357,159.639,49.607,159.639z"/>
</svg>
