<?xml version="1.0" encoding="utf-8"?>
<!-- Generator: Adobe Illustrator 18.0.0, SVG Export Plug-In . SVG Version: 6.00 Build 0)  -->
<!DOCTYPE svg PUBLIC "-//W3C//DTD SVG 1.1//EN" "http://www.w3.org/Graphics/SVG/1.1/DTD/svg11.dtd">
<svg version="1.1" id="Layer_1" xmlns="http://www.w3.org/2000/svg" xmlns:xlink="http://www.w3.org/1999/xlink" x="0px" y="0px"
	 viewBox="0 0 120 200" enable-background="new 0 0 120 200" xml:space="preserve">
<path fill="#FFFFFF" stroke="#404041" stroke-width="4" stroke-miterlimit="10" d="M103.676,192.304H16.324
	c-4.664,0-8.48-3.816-8.48-8.48V16.176c0-4.664,3.816-8.48,8.48-8.48h87.352c4.664,0,8.48,3.816,8.48,8.48v167.648
	C112.156,188.488,108.34,192.304,103.676,192.304z"/>
<path fill="#404041" d="M103.153,163.187H16.847c-1.146,0-2.083-0.938-2.083-2.083V23.424c0-1.146,0.938-2.083,2.083-2.083h86.306
	c1.146,0,2.083,0.938,2.083,2.083v137.679C105.236,162.249,104.299,163.187,103.153,163.187z"/>
<circle fill="#404041" cx="60" cy="177.501" r="7.392"/>
</svg>
