<?xml version="1.0" encoding="utf-8"?>
<!-- Generator: Adobe Illustrator 16.0.0, SVG Export Plug-In . SVG Version: 6.00 Build 0)  -->
<!DOCTYPE svg PUBLIC "-//W3C//DTD SVG 1.1//EN" "http://www.w3.org/Graphics/SVG/1.1/DTD/svg11.dtd">
<svg version="1.1" xmlns="http://www.w3.org/2000/svg" xmlns:xlink="http://www.w3.org/1999/xlink" x="0px" y="0px" width="700px"
	 height="700px" viewBox="0 0 700 700" enable-background="new 0 0 700 700" xml:space="preserve">
<g id="Layer_2">
	<path fill="none" stroke="#EDA321" stroke-width="7" stroke-linecap="round" stroke-linejoin="round" stroke-miterlimit="10" d="
		M404.754,181.908"/>
	<path opacity="0.4" fill="#EDA321" d="M402.083-14.258c0-0.022-0.439-0.022-0.439-0.022c0.184-0.046,0.369-0.07,0.553-0.116
		C402.128-14.35,402.06-14.304,402.083-14.258z"/>
	<path fill="none" stroke="#FFFFFF" stroke-linejoin="round" stroke-miterlimit="10" d="M405.594,432.719v0.229
		c-0.576,0-1.15-0.022-1.68-0.07C404.488,432.855,405.064,432.811,405.594,432.719z"/>
	<path fill="none" stroke="#FFFFFF" stroke-linejoin="round" stroke-miterlimit="10" d="M405.594,432.719v0.229
		c-0.576,0-1.15-0.022-1.68-0.07C404.488,432.855,405.064,432.811,405.594,432.719z"/>
	<path fill="none" stroke="#FFFFFF" stroke-linejoin="round" stroke-miterlimit="10" d="M405.57,432.878
		c-0.529,0.048-1.082,0.07-1.634,0.07v-0.207C404.466,432.811,404.994,432.855,405.57,432.878z"/>
</g>
<g id="Layer_1">
	<rect fill="#EDA321" width="700" height="700"/>
	<g>
		<path fill="#FFFFFF" d="M244.113,467.604h0.292c11.021,0,19.56,3.041,25.615,9.123c6.697,6.725,10.044,14.815,10.044,24.274
			c0,9.487-3.347,17.579-10.044,24.275c-6.055,6.082-14.593,9.124-25.615,9.124h-0.292v0.084h-3.767V467.52h3.767V467.604z
			 M244.113,471.453v59.138h0.292c9.934,0,17.564-2.677,22.894-8.036c5.943-5.943,8.915-13.127,8.915-21.554
			c0-8.397-2.972-15.582-8.915-21.553c-5.33-5.33-12.96-7.995-22.894-7.995H244.113z"/>
		<path fill="#FFFFFF" d="M295.906,479.908c0.739,0.724,1.11,1.604,1.11,2.638c0,1.06-0.371,1.952-1.11,2.677
			c-0.74,0.727-1.626,1.088-2.658,1.088s-1.918-0.361-2.657-1.088c-0.74-0.725-1.109-1.617-1.109-2.677
			c0-1.033,0.369-1.914,1.109-2.638c0.738-0.726,1.625-1.089,2.657-1.089S295.166,479.183,295.906,479.908z M295.132,493.384v41.101
			h-3.768v-41.101H295.132z"/>
		<path fill="#FFFFFF" d="M312.291,502.55v31.935h-3.767v-41.101h3.767v2.637c3.432-3.403,7.422-5.105,11.969-5.105
			c4.856,0,8.804,1.52,11.845,4.562c3.041,3.041,4.603,6.879,4.688,11.51v27.498h-3.766v-27.163c0-3.488-1.263-6.467-3.789-8.937
			c-2.525-2.469-5.517-3.702-8.978-3.702c-3.459,0-6.444,1.213-8.956,3.642C313.938,499.69,312.934,501.1,312.291,502.55z"/>
		<path fill="#FFFFFF" d="M357.087,502.55v31.935h-3.75v-41.101h3.75v2.637c3.414-3.403,7.405-5.105,11.951-5.105
			c4.856,0,8.804,1.52,11.846,4.562c3.041,3.041,4.603,6.879,4.687,11.51v27.498h-3.767v-27.163c0-3.488-1.262-6.467-3.787-8.937
			c-2.525-2.469-5.518-3.702-8.979-3.702c-3.459,0-6.444,1.213-8.953,3.642C358.724,499.69,357.726,501.1,357.087,502.55z"/>
		<path fill="#FFFFFF" d="M405.953,526.782c3.544,3.236,7.758,4.854,12.641,4.854c5.246,0,9.723-1.855,13.435-5.565
			c0.474-0.476,0.92-0.964,1.338-1.465l3.977,1.424c-0.726,1.003-1.547,1.966-2.47,2.887c-4.492,4.492-9.918,6.738-16.279,6.738
			c-6.333,0-11.747-2.246-16.239-6.738c-4.493-4.492-6.739-9.919-6.739-16.279c0-6.335,2.246-11.747,6.739-16.241
			c4.492-4.492,9.906-6.736,16.239-6.736c5.44,0,10.197,1.63,14.271,4.896c0.669,0.558,1.339,1.172,2.008,1.841
			c0.251,0.253,0.488,0.503,0.713,0.755l-2.847,2.845L405.953,526.782z M429.977,497.443c-3.265-2.51-7.059-3.766-11.383-3.766
			c-5.219,0-9.683,1.848-13.393,5.546c-3.711,3.696-5.567,8.167-5.567,13.414c0,4.323,1.257,8.118,3.768,11.383L429.977,497.443z"/>
		<path fill="#FFFFFF" d="M447.388,493.384h3.765v7.493c0.783-1.117,1.69-2.192,2.722-3.223c3.321-3.321,6.726-5.064,10.213-5.233
			v4.102c-2.371,0.112-4.827,1.438-7.365,3.977c-3.571,3.544-5.429,7.798-5.569,12.766v21.22h-3.765V493.384z"/>
		<path fill="#FFFFFF" d="M247.974,635.565l9.73,8.727c-11.886,10.837-24.462,16.259-37.73,16.259
			c-14.188,0-26.284-5.001-36.286-15.005c-10.004-10.002-15.004-22.098-15.004-36.286c0-14.146,5-26.24,15.004-36.285
			c10.002-10.045,22.099-15.067,36.286-15.067c13.268,0,25.844,5.42,37.73,16.261l-9.73,8.852c-8.957-7.953-18.291-11.93-28-11.93
			c-10.506,0-19.493,3.727-26.963,11.176c-7.47,7.451-11.206,16.447-11.206,26.994c0,10.591,3.735,19.608,11.206,27.058
			c7.47,7.45,16.458,11.176,26.963,11.176C229.684,647.493,239.018,643.516,247.974,635.565z"/>
		<path fill="#FFFFFF" d="M286.395,558.975v100.51h-13.058v-100.51H286.395z"/>
		<path fill="#FFFFFF" d="M337.184,589.61c9.876,0,18.278,3.495,25.223,10.483c6.968,6.989,10.451,15.424,10.451,25.302
			c0,9.875-3.483,18.311-10.451,25.299c-6.944,6.989-15.346,10.483-25.223,10.483c-9.836,0-18.248-3.494-25.236-10.483
			c-6.992-6.988-10.485-15.424-10.485-25.299c0-9.878,3.494-18.313,10.485-25.302C318.936,593.105,327.347,589.61,337.184,589.61z
			 M321.332,609.575c-4.374,4.393-6.56,9.667-6.56,15.82c0,6.193,2.186,11.467,6.56,15.819c4.373,4.353,9.656,6.529,15.852,6.529
			c6.192,0,11.478-2.177,15.843-6.529c4.35-4.353,6.527-9.626,6.527-15.819c0-6.153-2.178-11.428-6.527-15.82
			c-4.365-4.396-9.65-6.593-15.843-6.593C330.988,602.982,325.705,605.18,321.332,609.575z"/>
		<path fill="#FFFFFF" d="M415.298,660.362c-8.161,0-14.731-2.491-19.714-7.471c-4.979-4.979-7.533-11.216-7.659-18.708v-39.3h13.06
			v38.797c0,3.727,1.359,6.927,4.08,9.605c2.721,2.68,6.111,4.019,10.169,4.019c3.727,0,6.959-1.329,9.701-3.986
			c2.74-2.658,4.111-5.869,4.111-9.638v-38.797h12.994v39.3c-0.123,7.492-2.656,13.729-7.596,18.708
			C429.464,657.871,423.081,660.362,415.298,660.362z"/>
		<path fill="#FFFFFF" d="M516.937,599.342v-40.305h13.058v100.447h-13.058v-8.035c-6.277,6.486-13.581,9.729-21.91,9.729
			c-9.877,0-18.3-3.494-25.269-10.483c-6.969-6.988-10.453-15.424-10.453-25.299c0-9.878,3.484-18.313,10.453-25.302
			c6.969-6.988,15.392-10.483,25.269-10.483C503.355,589.61,510.659,592.854,516.937,599.342z M516.937,630.229v-9.604
			c-0.754-4.06-2.783-7.743-6.09-11.049c-4.354-4.396-9.627-6.593-15.82-6.593s-11.478,2.197-15.852,6.593
			c-4.373,4.393-6.561,9.667-6.561,15.82c0,6.193,2.188,11.467,6.561,15.819c4.374,4.353,9.658,6.529,15.852,6.529
			s11.467-2.177,15.82-6.529C514.153,637.908,516.183,634.246,516.937,630.229z"/>
	</g>
	<g>
		<path fill="#FFFFFF" d="M269.951,157.313c0,0,5.224,3.684,7.467,1.535c2.24-2.144-2.203-7.646-2.203-7.646l-67.081-83.334
			c0,0,80.094,68.233,96.142,87.01c9.396,21.896,0.128,35.849,20.841,57.476c20.713,21.622,194.234,193.379,194.234,193.379
			c0.309,0.322,8.842,10.045-2.165,21.715c-0.243,0.361-0.433,0.609-0.748,0.941c-0.354,0.305-1.212,1.083-1.578,1.315
			c-12.436,7.9-20.793-1.7-20.793-1.7s-166.381-176.646-187.098-198.27c-20.71-21.626-34.153-13.827-55.624-24.153
			c-18.067-16.847-82.224-100.346-82.224-100.346l80.527,70.456c0,0,5.403,4.582,7.631,2.447c2.244-2.148-1.16-7.572-1.16-7.572
			l-67.382-84.117L269.951,157.313z"/>
		<path fill="#FFFFFF" d="M556.945,77.179L206.903,424.053c0,0-12.993,11.756-20.341,4.194c-7.345-7.564-18.746-16.807-0.528-33.639
			c18.224-16.83,157.573-132.711,179.316-169.392c7.992-16.192-3.515-25.765,4.72-33.76c8.23-7.996,109.974-104.863,146.418-120.156
			C552.934,56.008,559.785,74.421,556.945,77.179z"/>
	</g>
</g>
<g id="v2" display="none">
	<path display="inline" opacity="0.15" stroke="#000000" stroke-miterlimit="10" d="M311.669,108.469
		c-1.816,0-2.165,0.032-3.96,0.107c6.058-0.78,12.961-1.175,19.222-1.175c65.13,0,121.97,43.024,141.521,102.95
		c-4.989,0.417-9.753,1.154-14.413,2.126c0,0-3.771,0-3.771,0.011c-0.022-0.085-2.768-0.16-4.768-0.246v-0.021
		C428.5,152.295,377.227,108.469,311.669,108.469z"/>
	<path display="inline" opacity="0.15" stroke="#000000" stroke-miterlimit="10" d="M523.123,219.145
		c30.951,7.874,57.148,28.28,73.035,55.727c8.42,14.52,13.452,30.984,15.662,48.602c-3.558-0.523-7.199-0.791-10.897-0.791
		c-2.734,0-5.501,0.139-8.151,0.438c-1.079-21.026-6.271-40.673-16.336-57.533C564.182,245.021,545.452,228.653,523.123,219.145z"/>
	<path display="inline" opacity="0.15" stroke="#000000" stroke-miterlimit="10" d="M696.11,415.729
		c0,42.051-31.353,76.519-71.194,79.755c-2.043,0.171-4.098,0.257-6.172,0.257c-2.139,0-4.244-0.096-6.33-0.268
		c-0.159,0.32-0.318,0.631-0.5,0.93c-15.596,28.847-45.438,48.345-79.685,48.345c-24.055,0-45.917-9.615-62.216-25.342
		c-4.233-4.081-8.085-8.569-11.5-13.397c-13.777,40.771-51.3,69.99-95.42,69.99c-26.65,0-50.875-10.663-68.918-28.066
		c-11.16-10.759-19.948-24.081-25.491-39.061c-16.203,16.187-38.257,26.143-62.577,26.143c-23.747,0-45.343-9.497-61.429-25.021
		c-4.617-4.455-8.788-9.401-12.416-14.765C72.484,493.637,24.503,443.262,24.503,381.07c0-2.714,0.096-5.406,0.276-8.077
		c3.894,54.724,48.662,97.907,103.824,99.339c3.5,5.032,7.533,9.681,11.99,13.858c15.543,14.562,36.406,23.472,59.343,23.472
		c23.49,0,44.8-9.338,60.45-24.53c5.351,14.061,13.84,26.56,24.617,36.646c17.438,16.335,40.833,26.336,66.579,26.336
		c42.619,0,78.865-27.415,92.174-65.663c3.299,4.529,7.022,8.739,11.106,12.563c15.747,14.754,36.875,23.782,60.11,23.782
		c33.076,0,61.907-18.291,76.973-45.363c0.17-0.278,0.328-0.567,0.479-0.865c2.021,0.159,4.053,0.245,6.117,0.245
		c2,0,3.99-0.075,5.958-0.235c38.49-3.045,68.779-35.374,68.779-74.83c0-22.255-9.66-42.244-24.99-55.995
		C676.363,353.752,696.11,382.353,696.11,415.729z"/>
	
		<path display="inline" fill="#EDA321" stroke="#EDA321" stroke-width="7" stroke-linecap="round" stroke-linejoin="round" stroke-miterlimit="10" d="
		M171.177,266.325c-0.379-6.41,0.08-9.242,0.08-13.942c0-79.478,62.938-143.913,142.416-143.913
		c65.556,0,119.828,43.826,136.828,103.752v0.021c1,0.086,1.836,0.161,1.857,0.246c0-0.011,0.902-0.011,0.902-0.011
		c7.521-1.571,15.788-2.521,23.779-2.521c41.657,0,78.536,22.276,98.409,55.631c10.064,16.86,15.251,36.507,16.329,57.533
		c2.65-0.299,5.409-0.438,8.145-0.438c41.453,0,75.111,33.612,75.111,75.065c0,39.456-30.418,71.785-69.072,74.83
		c-1.977,0.16-3.976,0.235-5.983,0.235c-2.073,0-4.114-0.086-6.144-0.245c-0.15,0.298-0.31,0.587-0.481,0.865
		c-15.128,27.072-44.081,45.363-77.299,45.363c-23.333,0-44.551-9.028-60.364-23.782c-4.103-3.824-7.842-8.034-11.153-12.563
		c-13.365,38.248-49.766,65.663-92.565,65.663c-25.855,0-49.35-10.001-66.861-26.336c-10.823-10.087-19.348-22.586-24.722-36.646
		c-15.716,15.192-37.116,24.53-60.707,24.53c-23.035,0-43.986-8.91-59.595-23.472c-4.477-4.178-8.526-8.826-12.041-13.858
		c-57.993-1.495-104.542-48.75-104.542-107.106c0-59.295,48.271-107.256,107.566-107.256
		C145.749,257.97,158.452,260.982,171.177,266.325L171.177,266.325z"/>
	
		<path display="inline" fill="none" stroke="#EDA321" stroke-width="7" stroke-linecap="round" stroke-linejoin="round" stroke-miterlimit="10" d="
		M170.339,266.165"/>
	<path display="inline" opacity="0.4" fill="#EDA321" d="M470.729,218.268c0-0.01-0.203-0.01-0.203-0.01
		c0.086-0.021,0.171-0.032,0.257-0.054C470.75,218.226,470.719,218.247,470.729,218.268z"/>
	<path display="inline" fill="#FFFFFF" d="M486.996,231.653L362.179,355.339c39.455,39.296,100.021,99.15,100.021,99.15
		c0.215,0.216,5.991,6.827-1.696,14.952c-0.169,0.26-0.304,0.43-0.53,0.656c-0.248,0.214-0.848,0.758-1.095,0.926
		c-8.647,5.55-14.31-0.971-14.31-0.971s-57.672-61.256-95.68-101.547L242.664,473.771c0,0-9.064,8.205-14.195,2.927
		c-5.131-5.278-13.087-11.731-0.373-23.476c10.251-9.47,75.428-63.854,108.259-97.997c-9.075-9.595-15.868-16.771-18.682-19.709
		c-14.048-14.669-23.383-9.178-38.075-16.071c-12.274-11.403-55.639-68.206-55.639-68.206l54.768,47.671
		c0,0,3.674,3.096,5.233,1.605c1.56-1.504-0.724-5.2-0.724-5.2l-45.58-57.197l55.231,47.954c0,0,3.561,2.474,5.131,0.982
		c1.56-1.502-1.447-5.244-1.447-5.244l-45.342-56.622c1.661,1.401,54.621,46.314,65.323,58.871
		c6.25,14.964-0.271,24.649,13.788,39.331c2.712,2.836,9.29,9.448,18.139,18.297c2.012-2.51,3.628-4.77,4.781-6.702
		c5.572-11.302-2.453-17.992,3.288-23.564c5.752-5.583,76.763-73.201,102.201-83.87
		C484.192,216.871,488.974,229.733,486.996,231.653z"/>
</g>
</svg>
